# xmcd CD Database Entry
#
# Track frame offsets:
# 150
# 16905
# 34335
# 52505
# 67693
# 80909
# 97485
# 114304
# 129417
# 144305
# 158426
# 173446
# 188331
# 204961
# 222245
# 237126
# 252926
#
# Disc length: 3598 seconds
#
# Revision: 1
# Processed by: cddbd v1.4b41PL1 Copyright (c) Steve Scherf et al.
# Submitted via: tcd 2.0b
#
DISCID=d00e0c11
DTITLE=Dance Now - 2001 Disc 1
DYEAR=1900
DGENRE=
TTITLE0=Groove Jet
TTITLE1=Fill Me In
TTITLE2=Sky
TTITLE3=Pull Up The Bumper
TTITLE4=I Feel You
TTITLE5=Don't Give Up
TTITLE6=Everything You Need
TTITLE7=Remember Me
TTITLE8=You See The Trouble With Me
TTITLE9=Bad Habit
TTITLE10=Feel The Beat
TTITLE11=The Lonely One
TTITLE12=With My Own Eyes
TTITLE13=We Are Alive
TTITLE14=Phatt Bass
TTITLE15=Zombie Nation
TTITLE16=The Summer
EXTD=
EXTT0=
EXTT1=
EXTT2=
EXTT3=
EXTT4=
EXTT5=
EXTT6=
EXTT7=
EXTT8=
EXTT9=
EXTT10=
EXTT11=
EXTT12=
EXTT13=
EXTT14=
EXTT15=
EXTT16=
PLAYORDER=
